<svg xmlns="http://www.w3.org/2000/svg" xmlns:xlink="http://www.w3.org/1999/xlink" contentStyleType="text/css" data-diagram-type="DESCRIPTION" height="338px" preserveAspectRatio="none" style="width:818px;height:338px;background:#FFFFFF;" version="1.1" viewBox="0 0 818 338" width="818px" zoomAndPan="magnify"><?plantuml 1.2026.6?><defs/><g><g class="title" data-source-line="2"><text fill="#000000" font-family="sans-serif" font-size="14" font-weight="700" lengthAdjust="spacing" textLength="292.5918" x="259.2041" y="24.5332">Evaluated project references (Release / x64)</text></g><!--entity Inspection_Client--><g class="entity" data-qualified-name="Inspection_Client" data-source-line="4" id="ent0001"><rect fill="#F1F1F1" height="37.6094" rx="2.5" ry="2.5" style="stroke:#181818;stroke-width:0.5;" width="123.5029" x="108" y="125.6094"/><text fill="#000000" font-family="sans-serif" font-size="14" lengthAdjust="spacing" textLength="103.5029" x="118" y="150.1426">Inspection.Client</text></g><!--entity Inspection_Contracts--><g class="entity" data-qualified-name="Inspection_Contracts" data-source-line="5" id="ent0002"><rect fill="#F1F1F1" height="37.6094" rx="2.5" ry="2.5" style="stroke:#181818;stroke-width:0.5;" width="147.6201" x="6" y="200.6094"/><text fill="#000000" font-family="sans-serif" font-size="14" lengthAdjust="spacing" textLength="127.6201" x="16" y="225.1426">Inspection.Contracts</text></g><!--entity Inspection_Core--><g class="entity" data-qualified-name="Inspection_Core" data-source-line="6" id="ent0003"><rect fill="#F1F1F1" height="37.6094" rx="2.5" ry="2.5" style="stroke:#181818;stroke-width:0.5;" width="118.0547" x="512" y="297.1094"/><text fill="#000000" font-family="sans-serif" font-size="14" lengthAdjust="spacing" textLength="98.0547" x="522" y="321.6426">Inspection.Core</text></g><!--entity Inspection_Host--><g class="entity" data-qualified-name="Inspection_Host" data-source-line="7" id="ent0004"><rect fill="#F1F1F1" height="37.6094" rx="2.5" ry="2.5" style="stroke:#181818;stroke-width:0.5;" width="116.4961" x="288" y="125.6094"/><text fill="#000000" font-family="sans-serif" font-size="14" lengthAdjust="spacing" textLength="96.4961" x="298" y="150.1426">Inspection.Host</text></g><!--entity Inspection_Infrastructure--><g class="entity" data-qualified-name="Inspection_Infrastructure" data-source-line="8" id="ent0005"><rect fill="#F1F1F1" height="37.6094" rx="2.5" ry="2.5" style="stroke:#181818;stroke-width:0.5;" width="170.1855" x="322" y="200.6094"/><text fill="#000000" font-family="sans-serif" font-size="14" lengthAdjust="spacing" textLength="150.1855" x="332" y="225.1426">Inspection.Infrastructure</text></g><!--entity Inspection_IntegrationTests--><g class="entity" data-qualified-name="Inspection_IntegrationTests" data-source-line="9" id="ent0006"><rect fill="#F1F1F1" height="37.6094" rx="2.5" ry="2.5" style="stroke:#181818;stroke-width:0.5;" width="188.0957" x="194" y="50.6094"/><text fill="#000000" font-family="sans-serif" font-size="14" lengthAdjust="spacing" textLength="168.0957" x="204" y="75.1426">Inspection.IntegrationTests</text></g><!--entity Inspection_Interop--><g class="entity" data-qualified-name="Inspection_Interop" data-source-line="10" id="ent0007"><rect fill="#F1F1F1" height="37.6094" rx="2.5" ry="2.5" style="stroke:#181818;stroke-width:0.5;" width="131.2959" x="172.5" y="200.6094"/><text fill="#000000" font-family="sans-serif" font-size="14" lengthAdjust="spacing" textLength="111.2959" x="182.5" y="225.1426">Inspection.Interop</text></g><!--entity Inspection_Tests--><g class="entity" data-qualified-name="Inspection_Tests" data-source-line="11" id="ent0008"><rect fill="#F1F1F1" height="37.6094" rx="2.5" ry="2.5" style="stroke:#181818;stroke-width:0.5;" width="121.9375" x="510" y="200.6094"/><text fill="#000000" font-family="sans-serif" font-size="14" lengthAdjust="spacing" textLength="101.9375" x="520" y="225.1426">Inspection.Tests</text></g><!--entity NativeInspection--><g class="entity" data-qualified-name="NativeInspection" data-source-line="26" id="ent0023"><rect fill="#F1F1F1" height="37.6094" rx="2.5" ry="2.5" style="stroke:#181818;stroke-width:0.5;" width="192.751" x="127.5" y="297.1094"/><text fill="#000000" font-family="sans-serif" font-size="14" lengthAdjust="spacing" textLength="172.751" x="137.5" y="321.6426">NativeInspection (C++ DLL)</text></g><g class="entity" data-qualified-name="GMN25" data-source-line="29" id="ent0026"><path d="M648,294.6094 L648,312.1094 L630.2539,316.1094 L648,320.1094 L648,337.3125 A0,0 0 0 0 648,337.3125 L801.9644,337.3125 A0,0 0 0 0 801.9644,337.3125 L801.9644,304.6094 L791.9644,294.6094 L648,294.6094 A0,0 0 0 0 648,294.6094" fill="#FEFFDD" style="stroke:#181818;stroke-width:0.5;"/><path d="M791.9644,294.6094 L791.9644,304.6094 L801.9644,304.6094 L791.9644,294.6094" fill="#FEFFDD" style="stroke:#181818;stroke-width:0.5;"/><text fill="#000000" font-family="sans-serif" font-size="13" lengthAdjust="spacing" textLength="117.0508" x="654" y="313.1045">Core declares ports.</text><text fill="#000000" font-family="sans-serif" font-size="13" lengthAdjust="spacing" textLength="132.9644" x="654" y="329.4561">No adapter references.</text></g><g class="link" data-entity-1="ent0001" data-entity-2="ent0002" data-link-type="dependency" id="lnk9"><polygon fill="#181818" points="102.3032,200.519,111.8127,197.9561,106.1864,197.3693,106.7732,191.743,102.3032,200.519" style="stroke:#181818;stroke-width:1;stroke-linejoin:miter;stroke-miterlimit:10;"/><path d="M147.7528,163.6543 C133.9065,174.8852 120.0432,186.1299 106.1864,197.3693" fill="none" style="stroke:#181818;stroke-width:1;"/></g><g class="link" data-entity-1="ent0004" data-entity-2="ent0002" data-link-type="dependency" id="lnk10"><polygon fill="#181818" points="145.8769,200.5304,155.6146,202.0059,150.6986,199.2071,153.4974,194.2911,145.8769,200.5304" style="stroke:#181818;stroke-width:1;stroke-linejoin:miter;stroke-miterlimit:10;"/><path d="M287.9539,161.5393 C246.0684,173.0342 194.2789,187.2471 150.6986,199.2071" fill="none" style="stroke:#181818;stroke-width:1;"/></g><g class="link" data-entity-1="ent0004" data-entity-2="ent0003" data-link-type="dependency" id="lnk11"><polygon fill="#181818" points="595.9191,296.9902,605.4437,294.4841,599.821,293.8637,600.4414,288.241,595.9191,296.9902" style="stroke:#181818;stroke-width:1;stroke-linejoin:miter;stroke-miterlimit:10;"/><path d="M404.1955,147.939 C481.4263,152.393 611.4949,165.0949 641,200.6094 C666.9064,231.7922 629.16,270.3556 599.821,293.8637" fill="none" style="stroke:#181818;stroke-width:1;"/></g><g class="link" data-entity-1="ent0004" data-entity-2="ent0005" data-link-type="dependency" id="lnk12"><polygon fill="#181818" points="391.8834,200.519,389.1819,191.0479,388.6773,196.6822,383.043,196.1777,391.8834,200.519" style="stroke:#181818;stroke-width:1;stroke-linejoin:miter;stroke-miterlimit:10;"/><path d="M361.0787,163.6543 C370.4634,174.8852 379.2855,185.4428 388.6773,196.6822" fill="none" style="stroke:#181818;stroke-width:1;"/></g><g class="link" data-entity-1="ent0004" data-entity-2="ent0007" data-link-type="dependency" id="lnk13"><polygon fill="#181818" points="286.1871,200.5641,296.0311,200.2553,290.6902,198.3911,292.5544,193.0503,286.1871,200.5641" style="stroke:#181818;stroke-width:1;stroke-linejoin:miter;stroke-miterlimit:10;"/><path d="M334.0112,163.6677 C329.0135,170.2334 322.7894,177.3297 316,182.6094 C307.0521,189.5675 301.0457,193.3942 290.6902,198.3911" fill="none" style="stroke:#181818;stroke-width:1;"/></g><g class="link" data-entity-1="ent0005" data-entity-2="ent0003" data-link-type="dependency" id="lnk14"><polygon fill="#181818" points="563.1465,297.0016,562.6869,287.1634,560.9048,292.5322,555.536,290.7502,563.1465,297.0016" style="stroke:#181818;stroke-width:1;stroke-linejoin:miter;stroke-miterlimit:10;"/><path d="M492.1319,236.3514 C506.263,241.3554 520.1526,247.9422 532,256.6094 C546.0876,266.9155 554.3641,279.492 560.9048,292.5322" fill="none" style="stroke:#181818;stroke-width:1;"/></g><g class="link" data-entity-1="ent0006" data-entity-2="ent0001" data-link-type="dependency" id="lnk15"><polygon fill="#181818" points="199.242,125.519,209.0001,124.1857,203.494,122.8885,204.7913,117.3824,199.242,125.519" style="stroke:#181818;stroke-width:1;stroke-linejoin:miter;stroke-miterlimit:10;"/><path d="M258.8315,88.6543 C240.6774,99.8852 221.6619,111.6491 203.494,122.8885" fill="none" style="stroke:#181818;stroke-width:1;"/></g><g class="link" data-entity-1="ent0006" data-entity-2="ent0002" data-link-type="dependency" id="lnk16"><polygon fill="#181818" points="78.5412,200.4139,82.2698,191.2981,78.3914,195.4161,74.2734,191.5378,78.5412,200.4139" style="stroke:#181818;stroke-width:1;stroke-linejoin:miter;stroke-miterlimit:10;"/><path d="M193.683,77.9002 C159.4802,85.2283 123.3158,99.2223 99,125.6094 C80.2389,145.9686 77.7693,174.6603 78.3914,195.4161" fill="none" style="stroke:#181818;stroke-width:1;"/></g><g class="link" data-entity-1="ent0006" data-entity-2="ent0003" data-link-type="dependency" id="lnk17"><polygon fill="#181818" points="615.0918,296.9988,624.8962,296.0648,619.4477,294.544,620.9685,289.0954,615.0918,296.9988" style="stroke:#181818;stroke-width:1;stroke-linejoin:miter;stroke-miterlimit:10;"/><path d="M382.1263,74.1204 C470.3704,83.0574 597.6378,111.729 659,200.6094 C678.6648,229.093 665.5245,251.22 642,276.6094 C634.4712,284.735 629.1837,289.0571 619.4477,294.544" fill="none" style="stroke:#181818;stroke-width:1;"/></g><g class="link" data-entity-1="ent0006" data-entity-2="ent0004" data-link-type="dependency" id="lnk18"><polygon fill="#181818" points="331.6268,125.519,329.16,115.9841,328.5165,121.6042,322.8963,120.9607,331.6268,125.519" style="stroke:#181818;stroke-width:1;stroke-linejoin:miter;stroke-miterlimit:10;"/><path d="M302.3371,88.6543 C311.2603,99.8852 319.5865,110.3648 328.5165,121.6042" fill="none" style="stroke:#181818;stroke-width:1;"/></g><g class="link" data-entity-1="ent0006" data-entity-2="ent0005" data-link-type="dependency" id="lnk19"><polygon fill="#181818" points="414.1454,200.5482,420.7791,193.2684,415.7219,195.8032,413.1871,190.746,414.1454,200.5482" style="stroke:#181818;stroke-width:1;stroke-linejoin:miter;stroke-miterlimit:10;"/><path d="M365.7426,88.7108 C384.3009,96.8607 401.9223,108.6326 413,125.6094 C427.677,148.1022 422.3735,175.7835 415.7219,195.8032" fill="none" style="stroke:#181818;stroke-width:1;"/></g><g class="link" data-entity-1="ent0006" data-entity-2="ent0007" data-link-type="dependency" id="lnk20"><polygon fill="#181818" points="244.1811,200.3132,250.8513,193.0669,245.7815,195.5763,243.2721,190.5064,244.1811,200.3132" style="stroke:#181818;stroke-width:1;stroke-linejoin:miter;stroke-miterlimit:10;"/><path d="M281.869,88.7571 C272.2727,117.1623 255.4086,167.0799 245.7815,195.5763" fill="none" style="stroke:#181818;stroke-width:1;"/></g><g class="link" data-entity-1="ent0007" data-entity-2="ent0003" data-link-type="dependency" id="lnk21"><polygon fill="#181818" points="553.6643,296.8824,550.2223,287.6546,550.1648,293.3111,544.5083,293.2537,553.6643,296.8824" style="stroke:#181818;stroke-width:1;stroke-linejoin:miter;stroke-miterlimit:10;"/><path d="M303.7415,236.9497 C306.8636,237.5486 309.9615,238.1064 313,238.6094 C398.4302,252.7497 427.8111,221.5754 507,256.6094 C517.6001,261.299 535.1077,277.945 550.1648,293.3111" fill="none" style="stroke:#181818;stroke-width:1;"/></g><g class="link" data-entity-1="ent0008" data-entity-2="ent0003" data-link-type="dependency" id="lnk22"><polygon fill="#181818" points="571,296.9448,575,287.9448,571,291.9448,567,287.9448,571,296.9448" style="stroke:#181818;stroke-width:1;stroke-linejoin:miter;stroke-miterlimit:10;"/><path d="M571,238.8299 C571,255.5637 571,275.2287 571,291.9448" fill="none" style="stroke:#181818;stroke-width:1;"/></g><g class="link" data-entity-1="ent0007" data-entity-2="ent0023" data-link-type="dependency" id="lnk24"><polygon fill="#181818" points="222.788,297.0356,226.4704,287.901,222.6129,292.0386,218.4753,288.1811,222.788,297.0356" style="stroke:#181818;stroke-width:1;stroke-linejoin:miter;stroke-miterlimit:10;"/><path d="M230.0546,238.97 C228.0092,244.5318 226.0814,250.7274 225,256.6094 C222.5389,269.9964 222.2052,280.4002 222.6129,292.0386" fill="none" style="stroke:#181818;stroke-width:1;stroke-dasharray:7,7;"/><text fill="#000000" font-family="sans-serif" font-size="13" lengthAdjust="spacing" textLength="278.9224" x="227" y="272.1045">C ABI at runtime; no managed ProjectReference</text></g></g></svg>