<svg xmlns="http://www.w3.org/2000/svg" xmlns:xlink="http://www.w3.org/1999/xlink" contentStyleType="text/css" data-diagram-type="DESCRIPTION" height="432px" preserveAspectRatio="none" style="width:1008px;height:432px;background:#FFFFFF;" version="1.1" viewBox="0 0 1008 432" width="1008px" zoomAndPan="magnify"><?plantuml 1.2026.6?><defs/><g><g class="title" data-source-line="2"><text fill="#000000" font-family="sans-serif" font-size="14" font-weight="700" lengthAdjust="spacing" textLength="292.5918" x="354.4541" y="24.5332">Evaluated project references (Release / x64)</text></g><!--entity Inspection_CppCli--><g class="entity" data-qualified-name="Inspection_CppCli" data-source-line="4" id="ent0001"><rect fill="#F1F1F1" height="37.6094" rx="2.5" ry="2.5" style="stroke:#181818;stroke-width:0.5;" width="209.8545" x="226.5" y="219.6094"/><text fill="#000000" font-family="sans-serif" font-size="14" lengthAdjust="spacing" textLength="189.8545" x="236.5" y="244.1426">Inspection.CppCli (mixed DLL)</text></g><!--entity Inspection_Client--><g class="entity" data-qualified-name="Inspection_Client" data-source-line="5" id="ent0002"><rect fill="#F1F1F1" height="37.6094" rx="2.5" ry="2.5" style="stroke:#181818;stroke-width:0.5;" width="123.5029" x="844.5" y="125.6094"/><text fill="#000000" font-family="sans-serif" font-size="14" lengthAdjust="spacing" textLength="103.5029" x="854.5" y="150.1426">Inspection.Client</text></g><!--entity Inspection_Contracts--><g class="entity" data-qualified-name="Inspection_Contracts" data-source-line="6" id="ent0003"><rect fill="#F1F1F1" height="37.6094" rx="2.5" ry="2.5" style="stroke:#181818;stroke-width:0.5;" width="147.6201" x="844.5" y="219.6094"/><text fill="#000000" font-family="sans-serif" font-size="14" lengthAdjust="spacing" textLength="127.6201" x="854.5" y="244.1426">Inspection.Contracts</text></g><!--entity Inspection_Core--><g class="entity" data-qualified-name="Inspection_Core" data-source-line="7" id="ent0004"><rect fill="#F1F1F1" height="37.6094" rx="2.5" ry="2.5" style="stroke:#181818;stroke-width:0.5;" width="118.0547" x="512.5" y="391.1094"/><text fill="#000000" font-family="sans-serif" font-size="14" lengthAdjust="spacing" textLength="98.0547" x="522.5" y="415.6426">Inspection.Core</text></g><!--entity Inspection_Host--><g class="entity" data-qualified-name="Inspection_Host" data-source-line="8" id="ent0005"><rect fill="#F1F1F1" height="37.6094" rx="2.5" ry="2.5" style="stroke:#181818;stroke-width:0.5;" width="116.4961" x="546.5" y="125.6094"/><text fill="#000000" font-family="sans-serif" font-size="14" lengthAdjust="spacing" textLength="96.4961" x="556.5" y="150.1426">Inspection.Host</text></g><!--entity Inspection_Infrastructure--><g class="entity" data-qualified-name="Inspection_Infrastructure" data-source-line="9" id="ent0006"><rect fill="#F1F1F1" height="37.6094" rx="2.5" ry="2.5" style="stroke:#181818;stroke-width:0.5;" width="170.1855" x="618.5" y="219.6094"/><text fill="#000000" font-family="sans-serif" font-size="14" lengthAdjust="spacing" textLength="150.1855" x="628.5" y="244.1426">Inspection.Infrastructure</text></g><!--entity Inspection_IntegrationTests--><g class="entity" data-qualified-name="Inspection_IntegrationTests" data-source-line="10" id="ent0007"><rect fill="#F1F1F1" height="37.6094" rx="2.5" ry="2.5" style="stroke:#181818;stroke-width:0.5;" width="188.0957" x="609.5" y="50.6094"/><text fill="#000000" font-family="sans-serif" font-size="14" lengthAdjust="spacing" textLength="168.0957" x="619.5" y="75.1426">Inspection.IntegrationTests</text></g><!--entity Inspection_Interop--><g class="entity" data-qualified-name="Inspection_Interop" data-source-line="11" id="ent0008"><rect fill="#F1F1F1" height="37.6094" rx="2.5" ry="2.5" style="stroke:#181818;stroke-width:0.5;" width="131.2959" x="253" y="294.6094"/><text fill="#000000" font-family="sans-serif" font-size="14" lengthAdjust="spacing" textLength="111.2959" x="263" y="319.1426">Inspection.Interop</text></g><!--entity Inspection_Tests--><g class="entity" data-qualified-name="Inspection_Tests" data-source-line="12" id="ent0009"><rect fill="#F1F1F1" height="37.6094" rx="2.5" ry="2.5" style="stroke:#181818;stroke-width:0.5;" width="121.9375" x="402.5" y="294.6094"/><text fill="#000000" font-family="sans-serif" font-size="14" lengthAdjust="spacing" textLength="101.9375" x="412.5" y="319.1426">Inspection.Tests</text></g><!--entity NativeInspection--><g class="entity" data-qualified-name="NativeInspection" data-source-line="29" id="ent0026"><rect fill="#F1F1F1" height="37.6094" rx="2.5" ry="2.5" style="stroke:#181818;stroke-width:0.5;" width="192.751" x="6" y="391.1094"/><text fill="#000000" font-family="sans-serif" font-size="14" lengthAdjust="spacing" textLength="172.751" x="16" y="415.6426">NativeInspection (C++ DLL)</text></g><g class="entity" data-qualified-name="GMN31" data-source-line="35" id="ent0032"><path d="M648.5,388.6094 L648.5,406.1094 L630.7539,410.1094 L648.5,414.1094 L648.5,431.3125 A0,0 0 0 0 648.5,431.3125 L802.4644,431.3125 A0,0 0 0 0 802.4644,431.3125 L802.4644,398.6094 L792.4644,388.6094 L648.5,388.6094 A0,0 0 0 0 648.5,388.6094" fill="#FEFFDD" style="stroke:#181818;stroke-width:0.5;"/><path d="M792.4644,388.6094 L792.4644,398.6094 L802.4644,398.6094 L792.4644,388.6094" fill="#FEFFDD" style="stroke:#181818;stroke-width:0.5;"/><text fill="#000000" font-family="sans-serif" font-size="13" lengthAdjust="spacing" textLength="117.0508" x="654.5" y="407.1045">Core declares ports.</text><text fill="#000000" font-family="sans-serif" font-size="13" lengthAdjust="spacing" textLength="132.9644" x="654.5" y="423.4561">No adapter references.</text></g><g class="link" data-entity-1="ent0002" data-entity-2="ent0003" data-link-type="dependency" id="lnk10"><polygon fill="#181818" points="916.1341,219.4709,918.9365,210.0291,915.4874,214.5129,911.0037,211.0638,916.1341,219.4709" style="stroke:#181818;stroke-width:1;stroke-linejoin:miter;stroke-miterlimit:10;"/><path d="M908.8708,163.7856 C910.9746,179.9145 913.3851,198.3955 915.4874,214.5129" fill="none" style="stroke:#181818;stroke-width:1;"/></g><g class="link" data-entity-1="ent0005" data-entity-2="ent0001" data-link-type="dependency" id="lnk11"><polygon fill="#181818" points="337.6598,219.4116,344.8127,212.6413,339.5822,214.7959,337.4276,209.5655,337.6598,219.4116" style="stroke:#181818;stroke-width:1;stroke-linejoin:miter;stroke-miterlimit:10;"/><path d="M546.47,157.0712 C533.9698,159.3773 520.8135,161.6818 508.5,163.6094 C476.8568,168.5629 392.375,164.1863 365.5,181.6094 C351.9479,190.3952 344.8915,202.0486 339.5822,214.7959" fill="none" style="stroke:#181818;stroke-width:1;"/><text fill="#000000" font-family="sans-serif" font-size="13" lengthAdjust="spacing" textLength="169.0635" x="367.5" y="197.1045">assembly reference; built first</text></g><g class="link" data-entity-1="ent0005" data-entity-2="ent0003" data-link-type="dependency" id="lnk12"><polygon fill="#181818" points="856.9998,219.5902,849.4876,213.221,852.2015,218.1844,847.2382,220.8983,856.9998,219.5902" style="stroke:#181818;stroke-width:1;stroke-linejoin:miter;stroke-miterlimit:10;"/><path d="M662.8251,162.6983 C718.0716,178.8851 795.9338,201.6983 852.2015,218.1844" fill="none" style="stroke:#181818;stroke-width:1;"/></g><g class="link" data-entity-1="ent0005" data-entity-2="ent0004" data-link-type="dependency" id="lnk13"><polygon fill="#181818" points="573.8601,391.0924,578.9883,382.684,574.5055,386.1342,571.0552,381.6514,573.8601,391.0924" style="stroke:#181818;stroke-width:1;stroke-linejoin:miter;stroke-miterlimit:10;"/><path d="M602.2825,163.6957 C597.5898,201.9106 586.2818,293.6821 576.5,370.6094 C575.6498,377.2957 575.3462,379.6748 574.5055,386.1342" fill="none" style="stroke:#181818;stroke-width:1;"/></g><g class="link" data-entity-1="ent0005" data-entity-2="ent0006" data-link-type="dependency" id="lnk14"><polygon fill="#181818" points="683.9814,219.4709,680.1116,210.4142,680.3188,216.0672,674.6657,216.2744,683.9814,219.4709" style="stroke:#181818;stroke-width:1;stroke-linejoin:miter;stroke-miterlimit:10;"/><path d="M624.0592,163.7856 C641.4153,179.9145 662.975,199.9498 680.3188,216.0672" fill="none" style="stroke:#181818;stroke-width:1;"/></g><g class="link" data-entity-1="ent0005" data-entity-2="ent0008" data-link-type="dependency" id="lnk15"><polygon fill="#181818" points="364.1434,294.5735,373.9887,294.8376,368.7652,292.6661,370.9367,287.4426,364.1434,294.5735" style="stroke:#181818;stroke-width:1;stroke-linejoin:miter;stroke-miterlimit:10;"/><path d="M584.9623,163.6392 C572.1721,175.0708 554.8557,189.8635 538.5,201.6094 C499.3106,229.7534 488.3993,235.5288 445.5,257.6094 C419.1159,271.1894 393.2534,282.5596 368.7652,292.6661" fill="none" style="stroke:#181818;stroke-width:1;"/></g><g class="link" data-entity-1="ent0006" data-entity-2="ent0004" data-link-type="dependency" id="lnk16"><polygon fill="#181818" points="587.5115,390.8948,596.4179,386.6905,590.7764,387.108,590.3589,381.4666,587.5115,390.8948" style="stroke:#181818;stroke-width:1;stroke-linejoin:miter;stroke-miterlimit:10;"/><path d="M690.3916,257.6751 C671.7548,283.1916 636.3234,331.086 604.5,370.6094 C599.0894,377.3292 596.2502,380.7593 590.7764,387.108" fill="none" style="stroke:#181818;stroke-width:1;"/></g><g class="link" data-entity-1="ent0007" data-entity-2="ent0001" data-link-type="dependency" id="lnk17"><polygon fill="#181818" points="331.1526,219.2441,335.3679,210.343,331.2728,214.2456,327.3702,210.1505,331.1526,219.2441" style="stroke:#181818;stroke-width:1;stroke-linejoin:miter;stroke-miterlimit:10;"/><path d="M609.1331,75.1841 C521.9266,81.2765 400.571,95.087 364.5,125.6094 C336.9556,148.9167 331.8813,188.9612 331.2728,214.2456" fill="none" style="stroke:#181818;stroke-width:1;"/><text fill="#000000" font-family="sans-serif" font-size="13" lengthAdjust="spacing" textLength="169.0635" x="366.5" y="150.1045">assembly reference; built first</text></g><g class="link" data-entity-1="ent0007" data-entity-2="ent0002" data-link-type="dependency" id="lnk18"><polygon fill="#181818" points="872.641,125.5345,866.3862,117.9268,868.1707,123.2948,862.8027,125.0793,872.641,125.5345" style="stroke:#181818;stroke-width:1;stroke-linejoin:miter;stroke-miterlimit:10;"/><path d="M775.7573,88.7021 C793.8395,93.8802 813.0504,99.9487 830.5,106.6094 C844.6215,111.9997 855.2122,116.8024 868.1707,123.2948" fill="none" style="stroke:#181818;stroke-width:1;"/></g><g class="link" data-entity-1="ent0007" data-entity-2="ent0003" data-link-type="dependency" id="lnk19"><polygon fill="#181818" points="940.2414,219.6025,949.5853,216.4892,943.9343,216.2317,944.1919,210.5807,940.2414,219.6025" style="stroke:#181818;stroke-width:1;stroke-linejoin:miter;stroke-miterlimit:10;"/><path d="M797.5723,76.9927 C867.6142,83.9354 954.8626,97.9764 977.5,125.6094 C1001.7338,155.191 969.4611,192.9304 943.9343,216.2317" fill="none" style="stroke:#181818;stroke-width:1;"/></g><g class="link" data-entity-1="ent0007" data-entity-2="ent0004" data-link-type="dependency" id="lnk20"><polygon fill="#181818" points="625.5696,391.0648,635.3775,391.9622,630.3047,389.4589,632.808,384.3861,625.5696,391.0648" style="stroke:#181818;stroke-width:1;stroke-linejoin:miter;stroke-miterlimit:10;"/><path d="M769.5595,88.6439 C794.2879,99.7483 816.5,117.1007 816.5,143.6094 C816.5,143.6094 816.5,143.6094 816.5,314.6094 C816.5,324.7672 702.4546,364.9889 630.3047,389.4589" fill="none" style="stroke:#181818;stroke-width:1;"/></g><g class="link" data-entity-1="ent0007" data-entity-2="ent0005" data-link-type="dependency" id="lnk21"><polygon fill="#181818" points="629.0335,125.519,638.6511,123.3971,633.0578,122.5516,633.9033,116.9583,629.0335,125.519" style="stroke:#181818;stroke-width:1;stroke-linejoin:miter;stroke-miterlimit:10;"/><path d="M679.0281,88.6543 C663.7971,99.8852 648.3003,111.3122 633.0578,122.5516" fill="none" style="stroke:#181818;stroke-width:1;"/></g><g class="link" data-entity-1="ent0007" data-entity-2="ent0006" data-link-type="dependency" id="lnk22"><polygon fill="#181818" points="703.5,219.442,707.5,210.442,703.5,214.442,699.5,210.442,703.5,219.442" style="stroke:#181818;stroke-width:1;stroke-linejoin:miter;stroke-miterlimit:10;"/><path d="M703.5,88.7992 C703.5,120.9231 703.5,182.334 703.5,214.442" fill="none" style="stroke:#181818;stroke-width:1;"/></g><g class="link" data-entity-1="ent0007" data-entity-2="ent0008" data-link-type="dependency" id="lnk23"><polygon fill="#181818" points="261.4607,294.5834,255.1319,287.0371,256.9687,292.3874,251.6184,294.2243,261.4607,294.5834" style="stroke:#181818;stroke-width:1;stroke-linejoin:miter;stroke-miterlimit:10;"/><path d="M609.2282,77.6833 C516.5757,85.883 382.5742,101.4488 336.5,125.6094 C276.81,156.9098 246.884,158.953 217.5,219.6094 C210.1369,234.8087 208.8738,243.0896 217.5,257.6094 C227.392,274.2596 239.7963,283.9925 256.9687,292.3874" fill="none" style="stroke:#181818;stroke-width:1;"/></g><g class="link" data-entity-1="ent0008" data-entity-2="ent0004" data-link-type="dependency" id="lnk24"><polygon fill="#181818" points="524.3854,391.0128,517.4082,384.0615,519.7153,389.2265,514.5503,391.5336,524.3854,391.0128" style="stroke:#181818;stroke-width:1;stroke-linejoin:miter;stroke-miterlimit:10;"/><path d="M368.6607,332.6926 C384.3202,338.38 401.6432,344.7149 417.5,350.6094 C453.4225,363.9629 489.2626,377.579 519.7153,389.2265" fill="none" style="stroke:#181818;stroke-width:1;"/></g><g class="link" data-entity-1="ent0009" data-entity-2="ent0004" data-link-type="dependency" id="lnk25"><polygon fill="#181818" points="550.7404,390.9448,546.6013,382.0079,546.9776,387.6522,541.3332,388.0285,550.7404,390.9448" style="stroke:#181818;stroke-width:1;stroke-linejoin:miter;stroke-miterlimit:10;"/><path d="M484.3235,332.8299 C503.4478,349.5637 527.8734,370.9361 546.9776,387.6522" fill="none" style="stroke:#181818;stroke-width:1;"/></g><g class="link" data-entity-1="ent0008" data-entity-2="ent0026" data-link-type="dependency" id="lnk27"><polygon fill="#181818" points="108.0476,390.879,114.9673,383.8705,109.8127,386.2009,107.4823,381.0464,108.0476,390.879" style="stroke:#181818;stroke-width:1;stroke-linejoin:miter;stroke-miterlimit:10;"/><path d="M252.6325,329.6943 C247.8554,330.707 243.1069,331.6891 238.5,332.6094 C192.9288,341.7126 173.454,323.7934 135.5,350.6094 C121.7862,360.2987 114.8241,372.9192 109.8127,386.2009" fill="none" style="stroke:#181818;stroke-width:1;stroke-dasharray:7,7;"/><text fill="#000000" font-family="sans-serif" font-size="13" lengthAdjust="spacing" textLength="278.9224" x="137.5" y="366.1045">C ABI at runtime; no managed ProjectReference</text></g><g class="link" data-entity-1="ent0001" data-entity-2="ent0004" data-link-type="dependency" id="lnk28"><polygon fill="#181818" points="570.6062,390.8368,573.7961,381.5189,570.1648,385.8564,565.8273,382.2251,570.6062,390.8368" style="stroke:#181818;stroke-width:1;stroke-linejoin:miter;stroke-miterlimit:10;"/><path d="M436.7548,248.3806 C471.2421,256.0395 507.3713,269.8699 533.5,294.6094 C560.5718,320.2418 567.927,360.6048 570.1648,385.8564" fill="none" style="stroke:#181818;stroke-width:1;"/></g><g class="link" data-entity-1="ent0001" data-entity-2="ent0008" data-link-type="dependency" id="lnk29"><polygon fill="#181818" points="321.7216,294.519,327.2375,286.3597,322.5982,289.5965,319.3614,284.9571,321.7216,294.519" style="stroke:#181818;stroke-width:1;stroke-linejoin:miter;stroke-miterlimit:10;"/><path d="M328.2865,257.6543 C326.2865,268.8852 324.5997,278.357 322.5982,289.5965" fill="none" style="stroke:#181818;stroke-width:1;"/></g><g class="link" data-entity-1="ent0001" data-entity-2="ent0026" data-link-type="dependency" id="lnk30"><polygon fill="#181818" points="93.7112,391.0255,93.8437,381.1775,91.7422,386.4295,86.4902,384.328,93.7112,391.0255" style="stroke:#181818;stroke-width:1;stroke-linejoin:miter;stroke-miterlimit:10;"/><path d="M226.2437,250.7687 C169.9602,259.1414 108.7478,272.9619 91.5,294.6094 C69.4737,322.2544 81.1951,361.8114 91.7422,386.4295" fill="none" style="stroke:#181818;stroke-width:1;stroke-dasharray:7,7;"/><text fill="#000000" font-family="sans-serif" font-size="13" lengthAdjust="spacing" textLength="148.0972" x="93.5" y="319.1045">C++ import library / C ABI</text></g></g></svg>